<?xml version="1.0" ?><svg fill="none" height="64" viewBox="0 0 64 64" width="64" xmlns="http://www.w3.org/2000/svg"><path d="M25.5 21.5C25.5 17.9101 28.4101 15 32 15C35.5899 15 38.5 17.9101 38.5 21.5V26H41.5V21.5C41.5 16.2533 37.2467 12 32 12C26.7533 12 22.5 16.2533 22.5 21.5V26H25.5V21.5Z" fill="black"/><path d="M35 37.5C35 38.6104 34.3967 39.5799 33.5 40.0987V42.5C33.5 43.3284 32.8284 44 32 44C31.1716 44 30.5 43.3284 30.5 42.5V40.0987C29.6033 39.5799 29 38.6104 29 37.5C29 35.8431 30.3431 34.5 32 34.5C33.6569 34.5 35 35.8431 35 37.5Z" fill="black"/><path clip-rule="evenodd" d="M18 27.5C16.8954 27.5 16 28.3954 16 29.5V35.5C16 44.3366 23.1634 51.5 32 51.5C40.8366 51.5 48 44.3366 48 35.5V29.5C48 28.3954 47.1046 27.5 46 27.5H18ZM19 30.5V35.5C19 42.6797 24.8203 48.5 32 48.5C39.1797 48.5 45 42.6797 45 35.5V30.5H19Z" fill="black" fill-rule="evenodd"/></svg>